<svg xmlns="http://www.w3.org/2000/svg"
shape-rendering="geometricPrecision"
width="4000" height="4000" viewBox="0 0 564 564">
  <metadata>null</metadata>

<path d="
M 24.832 299.633
C 27.099 293.08 32.234 286.864 36.663 281.635
C 46.768 269.704 59.888 259.551 76.248 259.622
C 79.813 259.638 83.47 260.144 86.927 261.022
C 96.39 263.425 105.051 268.932 112.337 275.304
C 115.502 278.071 118.28 281.296 121.514 283.967
C 121.948 283.519 122.1 282.485 122.309 281.892
C 122.951 280.074 123.496 278.23 123.95 276.355
C 125.821 268.618 126.493 260.844 126.204 252.899
C 126.101 250.054 125.831 247.17 125.339 244.366
C 125.281 244.036 124.903 242.007 125.042 241.908
C 125.087 241.876 126.006 242.404 126.282 242.571
C 127.579 243.359 128.875 244.215 130.086 245.131
C 133.243 247.52 136.066 250.771 138.367 253.978
C 139.235 255.188 140.326 256.565 140.657 258.05
C 141.007 259.621 140.203 260.994 139.786 262.453
C 139.629 263.005 139.606 264.08 138.98 264.304
C 138.482 260.675 135.543 256.897 133.311 254.111
C 132.562 253.176 131.688 251.514 130.449 251.284
C 131.101 259.665 130.477 267.976 128.515 276.181
C 127.856 278.937 127.027 281.434 125.942 284.041
C 125.556 284.968 124.578 286.494 124.86 287.459
C 126.439 289.111 128.278 291.182 129.125 293.328
C 129.722 293.216 130.354 292.477 130.936 292.211
C 132.947 291.295 134.938 290.324 136.984 289.485
C 143.105 286.977 149.394 284.612 155.668 282.516
C 169.484 277.9 183.44 274.108 197.645 270.882
C 207.28 268.694 217.366 266.768 227.249 266.229
C 226.246 270.057 224.583 273.845 223.225 277.565
C 218.867 289.503 213.253 301.916 205.407 312.005
C 201.415 317.137 197.077 321.655 192.331 326.081
C 191.222 327.116 190.018 328.169 188.698 328.931
C 188.457 329.071 187.35 329.82 187.304 329.325
C 188.79 326.224 191.496 323.558 193.287 320.583
C 199.751 309.844 205.844 299.045 210.708 287.476
C 212.254 283.798 214.362 279.673 215.148 275.759
C 212.728 276.392 210.042 276.518 207.565 276.934
C 202.375 277.805 197.209 278.799 192.048 279.831
C 179.453 282.35 167.096 285.891 154.829 289.645
C 150.427 290.993 146.089 292.574 141.797 294.231
C 138.958 295.327 136.03 296.325 133.53 298.084
C 144.873 311.039 155.538 325.687 172.384 331.813
C 178.335 333.977 185.987 335.695 192.331 334.574
C 194.483 334.194 196.529 333.725 198.643 333.184
C 199.179 333.047 200.366 332.489 200.754 332.893
C 200.167 334.486 199.032 336.038 198.326 337.629
C 195.033 345.043 191.336 351.897 186.673 358.553
C 177.048 372.29 161.919 382.883 144.534 381.765
C 139.539 381.444 134.694 380.15 130.049 378.321
C 125.121 376.381 120.462 373.644 116.271 370.411
C 91.34 351.179 79.425 317.771 49.888 304.079
C 44.972 301.8 39.444 300.23 34.04 299.76
C 30.964 299.492 27.897 299.771 24.832 299.633 Z
M 35.788 293.191
C 37.216 293.458 39.007 292.356 40.408 292.032
C 43.805 291.246 47.25 290.729 50.734 290.56
C 62.157 290.004 73.406 293.759 82.897 299.932
C 94.575 307.528 103.473 318.415 112.465 328.863
C 121.567 339.44 131.871 350.787 145.569 355.234
C 149.037 356.36 152.623 357.221 156.272 357.44
C 165.048 357.968 172.998 354.63 180.539 350.52
C 183.581 348.862 186.16 346.447 188.833 344.274
C 189.049 344.099 191.272 342.617 190.996 342.25
C 190.845 342.049 189.753 342.62 189.613 342.696
C 188.437 343.333 187.279 344 186.1 344.636
C 183.159 346.223 179.876 347.356 176.617 348.083
C 166.68 350.299 156.161 349.028 146.88 344.906
C 126.8 335.988 115.897 316.475 100.992 301.569
C 90.839 291.416 77.113 283.36 62.363 283.743
C 58.143 283.853 53.959 284.635 49.974 286.028
C 45.111 287.729 39.578 289.57 35.788 293.191 Z
M 37.979 285.624
C 37.895 285.733 37.812 285.842 37.729 285.951
C 38.086 286.284 38.609 285.762 38.902 285.558
C 39.864 284.889 40.901 284.312 41.907 283.711
C 46.273 281.105 50.673 278.993 55.601 277.687
C 67.408 274.559 79.425 277.117 89.998 282.814
C 106.728 291.827 117.544 308.703 130.172 322.271
C 139.821 332.64 152.194 340.986 166.563 342.392
C 171.527 342.878 176.08 342.312 180.944 341.321
C 182.421 341.02 183.845 340.504 185.327 340.232
C 185.592 340.184 187.86 339.347 187.809 339.325
C 186.635 338.813 184.275 339.374 183 339.388
C 180.062 339.418 177.15 339.25 174.265 338.681
C 165.047 336.863 156.978 332.166 149.529 326.606
C 132.068 313.572 121.572 293.495 104.692 279.804
C 94.545 271.573 81.881 265.566 68.537 267.957
C 64.134 268.746 59.94 270.348 55.957 272.354
C 49.327 275.694 43.402 280.627 37.979 285.624 Z
M 42.869 296.53
C 43.282 297.222 44.57 297.203 45.315 297.278
C 47.64 297.513 49.819 298.286 52.028 299.033
C 59.155 301.444 65.946 305.249 71.8 309.964
C 82.532 318.609 91.184 329.469 99.461 340.393
C 109.002 352.985 120.221 366.441 135.653 371.788
C 149.566 376.608 165.197 372.924 176.017 362.982
C 179.086 360.162 182.117 357.292 185.02 354.298
C 185.675 353.622 186.369 352.981 186.943 352.233
C 186.996 352.163 187.624 351.492 187.499 351.373
C 187.282 351.167 185.937 352.209 185.715 352.388
C 184.085 353.701 182.503 355.179 180.768 356.353
C 176 359.582 171.041 362.23 165.403 363.602
C 149.844 367.388 135.334 361.406 123.12 351.958
C 110.48 342.181 101.836 328.417 90.729 317.118
C 84.757 311.042 77.754 305.747 70.161 301.882
C 64.043 298.766 57.277 296.959 50.427 296.437
C 47.976 296.251 45.252 295.771 42.869 296.53 Z"
opacity="1" fill="rgb(110,178,221)" fill-rule="evenodd" />
<path d="
M 126.895 286.392
C 129.245 283.979 132.489 282.685 135.533 281.399
C 136.8 280.864 138.908 280.547 139.742 279.365
C 141.429 272.977 143.914 266.801 145.369 260.337
C 149.474 242.097 151.172 223.489 150.228 204.819
C 149.862 197.603 149.56 189.818 147.741 182.815
C 149.515 184.273 151.992 185.195 153.93 186.559
C 157.545 189.104 160.869 192.103 163.999 195.217
C 177.42 208.57 186.059 227.085 190.047 245.423
C 191.133 250.422 191.868 255.437 192.296 260.535
C 192.457 262.449 193.054 264.732 192.753 266.634
C 177.773 269.442 163.052 274.542 148.789 279.804
C 143.26 281.844 137.735 283.871 132.186 285.851
C 131.029 286.264 126.928 288.07 126.895 286.392 Z
M 147.421 273.636
C 147.364 273.814 147.306 273.991 147.249 274.169
C 147.35 274.403 150.425 272.694 150.801 272.524
C 153.108 271.483 155.368 270.411 157.719 269.465
C 163.197 267.26 169.005 265.612 174.702 264.067
C 177.483 263.312 180.869 262.248 183.746 263.107
C 184.435 263.663 184.785 264.484 185.185 265.274
C 185.292 265.312 184.996 262.758 184.962 262.427
C 184.772 260.58 184.608 258.733 184.392 256.886
C 183.747 251.361 182.808 245.689 181.198 240.357
C 176.303 224.153 168.78 209.316 156.652 197.376
C 159.66 222.735 157.059 249.852 147.421 273.636 Z"
opacity="1" fill="rgb(131,195,224)" fill-rule="evenodd" />
<path d="
M 245.879 306.592
C 246.203 305.613 247.385 304.637 248.044 303.818
C 249.471 302.046 250.594 300.094 251.939 298.269
C 252.989 297.864 255.878 300.844 256.899 301.506
C 260.939 304.128 265.778 305.684 270.544 306.282
C 274.759 306.811 279.237 306.949 283.032 304.718
C 287.045 302.358 288.023 296.835 284.484 293.477
C 281.872 290.998 278.054 290.229 274.68 289.37
C 265.008 286.909 251.809 284.847 249.535 273.211
C 249.11 271.036 249.06 268.738 249.42 266.548
C 252.03 250.68 271.165 247.249 284.28 251.296
C 287.764 252.37 290.871 253.809 294.015 255.661
C 294.841 256.147 296.864 256.942 297.086 257.912
C 295.953 260.195 294.475 262.398 293.138 264.571
C 292.599 265.448 292.217 266.638 291.525 267.388
C 290.136 266.542 288.955 265.404 287.516 264.597
C 281.948 261.472 275.093 259.563 268.684 260.805
C 263.375 261.834 258.41 267.663 262.737 272.711
C 265.352 275.762 269.769 276.411 273.419 277.444
C 282.874 280.118 294.589 282 297.92 292.772
C 301.467 304.245 292.594 314.024 281.774 316.157
C 272.749 317.937 263 316.745 254.752 312.629
C 251.458 310.986 248.858 308.667 245.879 306.592 Z"
opacity="1" fill="rgb(87,156,214)" fill-rule="evenodd" />
<path d="
M 310.874 247.251
C 314.777 247.506 318.715 247.056 322.611 247.224
C 322.372 256.219 322.105 265.538 322.521 274.52
C 323.616 273.852 324.283 271.979 325.207 271.014
C 327.275 268.854 329.849 267.173 332.699 266.246
C 335.246 265.417 337.848 264.997 340.53 265.062
C 348.335 265.251 354.511 270.067 356.578 277.621
C 357.622 281.438 357.399 285.583 357.403 289.503
C 357.409 295.336 357.385 301.17 357.397 307.003
C 357.402 309.853 357.027 313.003 357.374 315.816
C 353.58 315.764 349.728 315.513 345.948 315.917
C 345.445 313.238 345.86 310.121 345.868 307.394
C 345.882 301.928 345.882 296.462 345.872 290.996
C 345.864 287.042 346.286 282.872 343.944 279.446
C 339.041 272.278 327.768 276.305 324.002 282.391
C 322.008 285.612 322.419 289.553 322.415 293.197
C 322.408 298.299 322.431 303.402 322.422 308.504
C 322.418 310.858 322.041 313.531 322.345 315.844
C 318.604 315.776 314.836 315.57 311.1 315.84
C 310.813 314.125 311.054 312.233 311.06 310.493
C 311.071 306.828 311.076 303.164 311.07 299.498
C 311.053 287.998 311.099 276.499 311.085 264.999
C 311.078 259.163 311.573 253.048 310.874 247.251 Z"
opacity="1" fill="rgb(88,153,213)" fill-rule="evenodd" />
<path d="
M 371.409 250.582
C 371.64 249.579 372.054 248.434 372.704 247.627
C 377.803 241.3 387.065 247.233 385.239 254.503
C 383.113 262.967 369.482 258.978 371.409 250.582 Z"
opacity="1" fill="rgb(96,158,218)" fill-rule="evenodd" />
<path d="
M 372.933 266.384
C 373.641 265.897 375.087 266.144 375.954 266.162
C 378.501 266.213 381.633 265.718 384.103 266.267
C 384.715 277.947 384.214 289.802 384.234 301.501
C 384.24 304.835 384.234 308.169 384.234 311.503
C 384.234 312.8 383.888 314.576 384.242 315.798
C 381.498 315.811 378.744 315.682 375.998 315.659
C 375.263 315.652 373.397 316.09 372.871 315.646
C 372.827 299.237 373.231 282.788 372.933 266.384 Z"
opacity="1" fill="rgb(86,150,211)" fill-rule="evenodd" />
<path d="
M 400.116 266.212
C 403.777 266.164 407.538 265.958 411.191 266.218
C 411.185 268.561 410.979 271.275 411.425 273.567
C 412.792 272.898 413.947 270.647 415.193 269.607
C 418.075 267.201 421.755 265.665 425.487 265.243
C 427.811 264.981 430.229 265.022 432.522 265.504
C 447.066 268.557 453.892 284.736 450.521 298.265
C 447.808 309.151 438.738 316.949 427.377 316.861
C 423.2 316.829 418.944 315.524 415.725 312.809
C 414.655 311.907 413.662 310.915 412.767 309.838
C 412.558 309.588 411.651 308.219 411.551 308.169
C 411.363 308.076 411.542 308.589 411.538 308.798
C 412.199 314.449 411.624 320.45 411.575 326.144
C 411.561 327.729 411.441 329.297 411.445 330.878
C 411.446 331.326 411.592 332.285 411.374 332.674
C 407.663 332.736 403.904 332.803 400.198 332.78
C 400.111 317.86 400.087 302.924 400.087 288
C 400.087 280.808 400.743 273.374 400.116 266.212 Z
M 411.374 287.582
C 410.231 294.051 412.514 301.585 418.224 305.216
C 423.389 308.499 431.244 307.211 435.443 302.936
C 437.498 300.844 438.708 297.826 439.229 294.983
C 440.303 289.13 439.093 282.413 434.474 278.319
C 425.855 270.677 413.233 277.065 411.374 287.582 Z"
opacity="1" fill="rgb(83,148,213)" fill-rule="evenodd" />
<path d="
M 463.275 246.869
C 467.061 246.988 470.879 246.731 474.658 246.887
C 475.01 248.08 474.666 249.743 474.664 250.997
C 474.659 254.165 474.658 257.333 474.654 260.501
C 474.642 270.501 474.625 280.502 474.664 290.503
C 474.677 294.003 474.672 297.504 474.691 301.005
C 474.699 302.587 474.433 304.458 475.668 305.652
C 478.28 308.176 480.74 305.255 483.41 305.782
C 483.783 307.791 484.375 309.906 485 311.854
C 485.161 312.356 485.862 313.502 485.525 313.987
C 478.573 317.622 467.543 318.97 464.079 309.938
C 463.098 307.379 463.269 304.504 463.279 301.815
C 463.294 297.709 463.308 293.604 463.301 289.498
C 463.284 279.831 463.227 270.165 463.237 260.498
C 463.241 256.011 462.877 251.334 463.275 246.869 Z"
opacity="1" fill="rgb(79,143,210)" fill-rule="evenodd" />
<path d="
M 487.15 266.294
C 490.018 265.738 493.142 266.141 496.056 266.095
C 496.842 266.083 498.405 265.681 499.011 266.136
C 502.213 274.21 505.224 282.381 508.317 290.499
C 510.081 295.126 512.294 299.721 513.519 304.515
C 514.244 303.997 514.417 302.179 514.65 301.36
C 515.348 298.911 516.388 296.555 517.22 294.149
C 520.453 284.8 523.551 275.078 527.446 265.995
C 530.215 265.848 533.005 265.98 535.781 265.941
C 536.728 265.928 538.403 265.592 539.254 265.987
C 537.182 272.634 534.21 279.165 531.419 285.539
C 528.816 291.482 526.575 297.601 524.078 303.591
C 520.852 311.33 518.579 320.293 513.506 327.087
C 509.373 332.622 501.718 334.349 495.261 332.639
C 493.64 332.21 491.106 331.77 490.013 330.442
C 490.956 327.508 492.387 324.714 493.41 321.803
C 497.253 322.678 501.135 325.181 504.636 321.795
C 505.332 321.122 505.854 320.335 506.36 319.515
C 506.888 318.658 507.564 317.518 507.623 316.481
C 507.702 315.096 506.564 313.373 506.053 312.109
C 504.762 308.92 503.467 305.732 502.171 302.544
C 498.731 294.077 495.214 285.638 491.635 277.228
C 490.099 273.619 488.956 269.779 487.15 266.294 Z"
opacity="1" fill="rgb(82,145,211)" fill-rule="evenodd" />

</svg>